<?xml version="1.0" encoding="UTF-8"?>
<svg xmlns="http://www.w3.org/2000/svg" xmlns:xlink="http://www.w3.org/1999/xlink" width="24pt" height="24pt" viewBox="0 0 24 24" version="1.1">
<g id="surface1">
<path style=" stroke:none;fill-rule:nonzero;fill:rgb(100%,85.490196%,26.666667%);fill-opacity:1;" d="M 0 12 C 0 13.46875 0.265625 14.875 0.746094 16.175781 L 12 17.21875 L 23.253906 16.175781 C 23.734375 14.875 24 13.46875 24 12 C 24 10.53125 23.734375 9.125 23.253906 7.824219 L 12 6.78125 L 0.746094 7.824219 C 0.265625 9.125 0 10.53125 0 12 Z M 0 12 "/>
<path style=" stroke:none;fill-rule:nonzero;fill:rgb(84.705882%,0%,15.294118%);fill-opacity:1;" d="M 23.253906 7.824219 C 21.558594 3.257812 17.160156 0 12 0 C 6.839844 0 2.441406 3.257812 0.746094 7.824219 Z M 23.253906 7.824219 "/>
<path style=" stroke:none;fill-rule:nonzero;fill:rgb(84.705882%,0%,15.294118%);fill-opacity:1;" d="M 0.746094 16.175781 C 2.441406 20.742188 6.839844 24 12 24 C 17.160156 24 21.558594 20.742188 23.253906 16.175781 Z M 0.746094 16.175781 "/>
</g>
</svg>
